<?xml version="1.0" standalone="no"?><!DOCTYPE svg PUBLIC "-//W3C//DTD SVG 1.1//EN" "http://www.w3.org/Graphics/SVG/1.1/DTD/svg11.dtd"><svg t="1547721668933" class="icon" style="" viewBox="0 0 1259 1024" version="1.1" xmlns="http://www.w3.org/2000/svg" p-id="6622" xmlns:xlink="http://www.w3.org/1999/xlink" width="245.8984375" height="200"><defs><style type="text/css"></style></defs><path d="M1046.431 926.413h-72.422v-283.488c0-191.648-155.951-347.564-349.074-347.564-191.648 0-347.6 155.916-347.6 347.564v283.488h-72.315c-18.112 0-32.793 14.682-32.793 32.793s14.682 32.793 32.793 32.793h841.411c18.112 0 32.793-14.682 32.793-32.793s-14.682-32.793-32.793-32.793zM342.97 926.413v-283.488c0-155.502 126.522-282.024 283.488-282.024 155.502 0 282.024 126.487 282.024 281.989v283.523zM625.773 237.814c0.007 0 0.015 0 0.023 0 18.098 0 32.769-14.672 32.769-32.769 0-0.008 0-0.017 0-0.025v-140.226c0-18.112-14.682-32.793-32.793-32.793s-32.793 14.682-32.793 32.793v140.227c0 0.007 0 0.015 0 0.023 0 18.098 14.672 32.769 32.769 32.769 0.008 0 0.017 0 0.025 0zM1179.67 505.708h-140.251c-18.112 0-32.793 14.682-32.793 32.793s14.682 32.793 32.793 32.793h140.251c18.112 0 32.793-14.682 32.793-32.793s-14.682-32.793-32.793-32.793zM891.66 342.71c0.010 0 0.023 0 0.036 0 9.044 0 17.229-3.673 23.148-9.608l99.159-99.159c5.933-5.933 9.603-14.13 9.603-23.184 0-18.108-14.679-32.787-32.787-32.787-9.054 0-17.251 3.67-23.184 9.603l-99.159 99.159c-5.932 5.934-9.601 14.131-9.601 23.184 0 18.109 14.678 32.789 32.784 32.793zM237.802 538.501c0-0.007 0-0.015 0-0.023 0-18.098-14.672-32.769-32.769-32.769-0.008 0-0.017 0-0.025 0h-140.214c-18.112 0-32.793 14.682-32.793 32.793s14.682 32.793 32.793 32.793h140.227c0.004 0 0.007 0 0.012 0 18.098 0 32.769-14.672 32.769-32.769 0-0.008 0-0.017 0-0.025zM336.335 333.113c5.933 5.933 14.13 9.603 23.184 9.603 18.108 0 32.787-14.679 32.787-32.787 0-9.054-3.67-17.251-9.603-23.184l-99.159-99.159c-5.933-5.933-14.13-9.603-23.184-9.603-18.108 0-32.787 14.679-32.787 32.787 0 9.054 3.67 17.251 9.603 23.184z" p-id="6623" fill="#ffffff"></path></svg>